# Exported from Wings 3D 2.1.5
mtllib DSAE_375-PC-SCS1.mtl
o DSAE_375-PC-SCS1
#42 vertices, 37 faces
v 3.75000000 0.25000000 0.0000000e+0
v 2.33808676 0.25000000 2.93186806
v -0.83445350 0.25000000 3.65597967
v -3.37863325 0.25000000 1.62706402
v -3.37863325 0.25000000 -1.62706402
v -0.83445350 0.25000000 -3.65597967
v 2.33808676 0.25000000 -2.93186806
v 3.75000000 -0.25000000 0.0000000e+0
v 2.33808676 -0.25000000 2.93186806
v -0.83445350 -0.25000000 3.65597967
v -3.37863325 -0.25000000 1.62706402
v -3.37863325 -0.25000000 -1.62706402
v -0.83445350 -0.25000000 -3.65597967
v 2.33808676 -0.25000000 -2.93186806
v 2.16039216 0.25000000 2.70904609
v 3.46500000 0.25000000 2.6339442e-17
v 2.16039216 0.25000000 -2.70904609
v -0.77103504 0.25000000 -3.37812522
v -3.12185713 0.25000000 -1.50340716
v -3.12185713 0.25000000 1.50340716
v -0.77103504 0.25000000 3.37812522
v 3.46500000 -0.25000000 2.6339442e-17
v 2.16039216 -0.25000000 2.70904609
v -0.77103504 -0.25000000 3.37812522
v -3.12185713 -0.25000000 1.50340716
v -3.12185713 -0.25000000 -1.50340716
v -0.77103504 -0.25000000 -3.37812522
v 2.16039216 -0.25000000 -2.70904609
v 2.16039216 0.18000000 2.70904609
v 3.46500000 0.18000000 2.6575991e-17
v 2.16039216 0.18000000 -2.70904609
v -0.77103504 0.18000000 -3.37812522
v -3.12185713 0.18000000 -1.50340716
v -3.12185713 0.18000000 1.50340716
v -0.77103504 0.18000000 3.37812522
v 3.46500000 -0.18000000 2.6575991e-17
v 2.16039216 -0.18000000 2.70904609
v -0.77103504 -0.18000000 3.37812522
v -3.12185713 -0.18000000 1.50340716
v -3.12185713 -0.18000000 -1.50340716
v -0.77103504 -0.18000000 -3.37812522
v 2.16039216 -0.18000000 -2.70904609
vt 4.9893423e-2 0.45374994
vt 5.0945084e-2 0.45311602
vt 6.3150954e-2 0.45093196
vt 6.4166455e-2 0.45013299
vt 8.5757652e-2 0.30232622
vt 8.6583079e-2 0.30340584
vt 9.6333268e-2 0.31080321
vt 9.7052197e-2 0.31201402
vt 0.14456155 0.57617308
vt 0.14713202 0.57434948
vt 0.15062430 0.56405095
vt 0.15304318 0.56215271
vt 0.22532135 0.24908155
vt 0.22535515 0.23552788
vt 0.22679970 0.25190515
vt 0.22700246 0.23835296
vt 0.27511964 0.73977248
vt 0.29360302 0.56619006
vt 0.29603746 0.56250924
vt 0.29930042 0.57848814
vt 0.30188773 0.57473534
vt 0.30484992 0.87964242
vt 0.35400005 0.31144566
vt 0.35469095 0.31586857
vt 0.36461781 0.30302151
vt 0.36541290 0.30757744
vt 0.36593785 0.62932093
vt 0.38442122 0.45573851
vt 0.38547168 0.45093411
vt 0.39758852 0.45895183
vt 0.39867801 0.45398303
vt 0.40237701 0.50749474
vt 0.40237701 0.54316240
vt 0.40293814 0.55035180
vt 0.40293814 0.58601947
vt 0.43274117 0.94360584
vt 0.45459288 0.55035180
vt 0.45459288 0.58601947
vt 0.50891657 0.63146005
vt 0.54711037 0.50749474
vt 0.54711037 0.54316240
vt 0.56248867 0.88349698
vt 0.59638991 0.74457903
vt 0.63136802 0.76661918
vt 0.66373865 0.55035180
vt 0.66373865 0.58601947
vt 0.66526926 0.90553713
vt 0.68674960 8.9155750e-2
vt 0.68674960 0.23215047
vt 0.71884136 0.65350020
vt 0.77924465 0.50749474
vt 0.77924465 0.54316240
vt 0.79501676 0.96564599
vt 0.79854737 0.0000000e+0
vt 0.79854737 0.32130622
vt 0.83521539 0.48195933
vt 0.86182008 0.65136108
vt 0.87288441 0.55035180
vt 0.87288441 0.58601947
vt 0.92290801 0.90168257
vt 0.92397802 0.50749474
vt 0.92397802 0.54316240
vt 0.92453915 0.55035180
vt 0.92453915 0.58601947
vt 0.93795692 3.1819319e-2
vt 0.93795692 0.28948690
vt 0.95263829 0.76181263
vt 1.00000000 0.16065311
vn 1.00000000 0.0000000e+0 -9.2419094e-17
vn 1.00000000 0.0000000e+0 -9.2419094e-17
vn 0.0000000e+0 1.00000000 0.0000000e+0
vn 0.0000000e+0 1.00000000 0.0000000e+0
vn 0.62348980 0.0000000e+0 0.78183148
vn 0.62348980 0.0000000e+0 0.78183148
vn 0.0000000e+0 1.00000000 0.0000000e+0
vn 0.0000000e+0 1.00000000 0.0000000e+0
vn -0.22252093 0.0000000e+0 0.97492791
vn -0.22252093 0.0000000e+0 0.97492791
vn 0.0000000e+0 1.00000000 0.0000000e+0
vn 0.0000000e+0 1.00000000 0.0000000e+0
vn -0.90096887 0.0000000e+0 0.43388374
vn -0.90096887 0.0000000e+0 0.43388374
vn 0.0000000e+0 1.00000000 0.0000000e+0
vn 0.0000000e+0 1.00000000 0.0000000e+0
vn -0.90096887 0.0000000e+0 -0.43388374
vn -0.90096887 0.0000000e+0 -0.43388374
vn 0.0000000e+0 1.00000000 0.0000000e+0
vn 0.0000000e+0 1.00000000 0.0000000e+0
vn -0.22252093 0.0000000e+0 -0.97492791
vn -0.22252093 0.0000000e+0 -0.97492791
vn 0.0000000e+0 1.00000000 0.0000000e+0
vn 0.0000000e+0 1.00000000 0.0000000e+0
vn 0.62348980 0.0000000e+0 -0.78183148
vn 0.62348980 0.0000000e+0 -0.78183148
vn 0.0000000e+0 1.00000000 0.0000000e+0
vn 0.0000000e+0 1.00000000 0.0000000e+0
vn 1.00000000 0.0000000e+0 -9.2419094e-17
vn 1.00000000 0.0000000e+0 -9.2419094e-17
vn 0.0000000e+0 -1.00000000 0.0000000e+0
vn 0.0000000e+0 -1.00000000 0.0000000e+0
vn 0.62348980 0.0000000e+0 0.78183148
vn 0.62348980 0.0000000e+0 0.78183148
vn 0.0000000e+0 -1.00000000 0.0000000e+0
vn 0.0000000e+0 -1.00000000 0.0000000e+0
vn -0.22252093 0.0000000e+0 0.97492791
vn -0.22252093 0.0000000e+0 0.97492791
vn 0.0000000e+0 -1.00000000 0.0000000e+0
vn 0.0000000e+0 -1.00000000 0.0000000e+0
vn -0.90096887 0.0000000e+0 0.43388374
vn -0.90096887 0.0000000e+0 0.43388374
vn 0.0000000e+0 -1.00000000 0.0000000e+0
vn 0.0000000e+0 -1.00000000 0.0000000e+0
vn -0.90096887 0.0000000e+0 -0.43388374
vn -0.90096887 0.0000000e+0 -0.43388374
vn 0.0000000e+0 -1.00000000 0.0000000e+0
vn 0.0000000e+0 -1.00000000 0.0000000e+0
vn -0.22252093 0.0000000e+0 -0.97492791
vn -0.22252093 0.0000000e+0 -0.97492791
vn 0.0000000e+0 -1.00000000 0.0000000e+0
vn 0.0000000e+0 -1.00000000 0.0000000e+0
vn 0.62348980 0.0000000e+0 -0.78183148
vn 0.62348980 0.0000000e+0 -0.78183148
vn 0.0000000e+0 -1.00000000 0.0000000e+0
vn 0.0000000e+0 -1.00000000 0.0000000e+0
vn 0.0000000e+0 1.00000000 0.0000000e+0
vn 0.0000000e+0 1.00000000 0.0000000e+0
vn -0.62348980 0.0000000e+0 -0.78183148
vn -0.62348980 0.0000000e+0 -0.78183148
vn 0.0000000e+0 1.00000000 0.0000000e+0
vn 0.0000000e+0 1.00000000 0.0000000e+0
vn -1.00000000 0.0000000e+0 1.5403182e-16
vn -1.00000000 0.0000000e+0 1.5403182e-16
vn 0.0000000e+0 1.00000000 0.0000000e+0
vn 0.0000000e+0 1.00000000 0.0000000e+0
vn -0.62348980 0.0000000e+0 0.78183148
vn -0.62348980 0.0000000e+0 0.78183148
vn 0.0000000e+0 1.00000000 0.0000000e+0
vn 0.0000000e+0 1.00000000 0.0000000e+0
vn 0.22252093 0.0000000e+0 0.97492791
vn 0.22252093 0.0000000e+0 0.97492791
vn 0.0000000e+0 1.00000000 0.0000000e+0
vn 0.0000000e+0 1.00000000 0.0000000e+0
vn 0.90096887 0.0000000e+0 0.43388374
vn 0.90096887 0.0000000e+0 0.43388374
vn 0.0000000e+0 1.00000000 0.0000000e+0
vn 0.0000000e+0 1.00000000 0.0000000e+0
vn 0.90096887 0.0000000e+0 -0.43388374
vn 0.90096887 0.0000000e+0 -0.43388374
vn 0.0000000e+0 1.00000000 0.0000000e+0
vn 0.0000000e+0 1.00000000 0.0000000e+0
vn 0.22252093 0.0000000e+0 -0.97492791
vn 0.22252093 0.0000000e+0 -0.97492791
vn 0.0000000e+0 -1.00000000 0.0000000e+0
vn 0.0000000e+0 -1.00000000 0.0000000e+0
vn -1.00000000 0.0000000e+0 1.5403182e-16
vn -1.00000000 0.0000000e+0 1.5403182e-16
vn 0.0000000e+0 -1.00000000 0.0000000e+0
vn 0.0000000e+0 -1.00000000 0.0000000e+0
vn -0.62348980 0.0000000e+0 -0.78183148
vn -0.62348980 0.0000000e+0 -0.78183148
vn 0.0000000e+0 -1.00000000 0.0000000e+0
vn 0.0000000e+0 -1.00000000 0.0000000e+0
vn 0.22252093 0.0000000e+0 -0.97492791
vn 0.22252093 0.0000000e+0 -0.97492791
vn 0.0000000e+0 -1.00000000 0.0000000e+0
vn 0.0000000e+0 -1.00000000 0.0000000e+0
vn 0.90096887 0.0000000e+0 -0.43388374
vn 0.90096887 0.0000000e+0 -0.43388374
vn 0.0000000e+0 -1.00000000 0.0000000e+0
vn 0.0000000e+0 -1.00000000 0.0000000e+0
vn 0.90096887 0.0000000e+0 0.43388374
vn 0.90096887 0.0000000e+0 0.43388374
vn 0.0000000e+0 -1.00000000 0.0000000e+0
vn 0.0000000e+0 -1.00000000 0.0000000e+0
vn 0.22252093 0.0000000e+0 0.97492791
vn 0.22252093 0.0000000e+0 0.97492791
vn 0.0000000e+0 -1.00000000 0.0000000e+0
vn 0.0000000e+0 -1.00000000 0.0000000e+0
vn -0.62348980 0.0000000e+0 0.78183148
vn -0.62348980 0.0000000e+0 0.78183148
vn 0.0000000e+0 1.00000000 -1.6896337e-18
vn -0.62348980 0.0000000e+0 -0.78183148
vn -0.62348980 0.0000000e+0 -0.78183148
vn 0.0000000e+0 1.00000000 -1.6896337e-18
vn -1.00000000 0.0000000e+0 1.5403182e-16
vn -1.00000000 0.0000000e+0 1.5403182e-16
vn 0.0000000e+0 1.00000000 -1.6896337e-18
vn -0.62348980 0.0000000e+0 0.78183148
vn -0.62348980 0.0000000e+0 0.78183148
vn 0.0000000e+0 1.00000000 -1.6896337e-18
vn 0.22252093 0.0000000e+0 0.97492791
vn 0.22252093 0.0000000e+0 0.97492791
vn 0.0000000e+0 1.00000000 -1.6896337e-18
vn 0.90096887 0.0000000e+0 0.43388374
vn 0.90096887 0.0000000e+0 0.43388374
vn 0.0000000e+0 1.00000000 -1.6896337e-18
vn 0.90096887 0.0000000e+0 -0.43388374
vn 0.90096887 0.0000000e+0 -0.43388374
vn 0.0000000e+0 1.00000000 -1.6896337e-18
vn 0.22252093 0.0000000e+0 -0.97492791
vn 0.22252093 0.0000000e+0 -0.97492791
vn 0.0000000e+0 -1.00000000 -1.6896337e-18
vn -1.00000000 0.0000000e+0 1.5403182e-16
vn -1.00000000 0.0000000e+0 1.5403182e-16
vn 0.0000000e+0 -1.00000000 -1.6896337e-18
vn -0.62348980 0.0000000e+0 -0.78183148
vn -0.62348980 0.0000000e+0 -0.78183148
vn 0.0000000e+0 -1.00000000 -1.6896337e-18
vn 0.22252093 0.0000000e+0 -0.97492791
vn 0.22252093 0.0000000e+0 -0.97492791
vn 0.0000000e+0 -1.00000000 -1.6896337e-18
vn 0.90096887 0.0000000e+0 -0.43388374
vn 0.90096887 0.0000000e+0 -0.43388374
vn 0.0000000e+0 -1.00000000 -1.6896337e-18
vn 0.90096887 0.0000000e+0 0.43388374
vn 0.90096887 0.0000000e+0 0.43388374
vn 0.0000000e+0 -1.00000000 -1.6896337e-18
vn 0.22252093 0.0000000e+0 0.97492791
vn 0.22252093 0.0000000e+0 0.97492791
vn 0.0000000e+0 -1.00000000 -1.6896337e-18
vn -0.62348980 0.0000000e+0 0.78183148
vn -0.62348980 0.0000000e+0 0.78183148
g DSAE_375-PC-SCS1_DSAE_375-PC-SCS1_auv
usemtl DSAE_375-PC-SCS1_auv
s 1
f 1/46/1 8/45/29 14/58/53 7/59/25
f 2/38/6 9/37/34 8/45/30 1/46/2
f 3/35/10 10/34/38 9/37/33 2/38/5
f 4/52/14 11/51/42 10/61/37 3/62/9
f 5/41/18 12/40/46 11/51/41 4/52/13
f 6/33/22 13/32/50 12/40/45 5/41/17
f 7/59/26 14/58/54 13/63/49 6/64/21
f 22/56/88 36/56/136 42/56/154 28/56/112
f 23/56/91 37/56/138 36/56/135 22/56/87
f 24/56/95 38/56/141 37/56/139 23/56/92
f 25/56/99 39/56/144 38/56/142 24/56/96
f 26/56/103 40/56/147 39/56/145 25/56/100
f 27/56/107 41/56/150 40/56/148 26/56/104
f 28/56/111 42/56/153 41/56/151 27/56/108
f 30/43/116 31/42/119 32/36/122 33/22/125 34/17/128 35/27/131 29/39/113
s 2
f 8/1/32 22/3/86 28/11/110 14/9/56
f 9/6/35 23/8/89 22/3/85 8/1/31
f 10/16/39 24/15/93 23/8/90 9/6/36
f 11/26/43 25/24/97 24/15/94 10/16/40
f 12/30/47 26/28/101 25/24/98 11/26/44
f 13/20/51 27/18/105 26/28/102 12/30/48
f 14/9/55 28/11/109 27/18/106 13/20/52
f 15/65/60 29/65/115 35/54/133 21/54/84
f 16/68/63 30/68/117 29/65/114 15/65/59
f 17/66/67 31/66/120 30/68/118 16/68/64
f 18/55/71 32/55/123 31/66/121 17/66/68
f 19/49/75 33/49/126 32/55/124 18/55/72
f 20/48/79 34/48/129 33/49/127 19/49/76
f 21/54/83 35/54/132 34/48/130 20/48/80
f 37/50/137 38/57/140 39/67/143 40/60/146 41/53/149 42/47/152 36/44/134
s 3
f 1/31/3 16/29/61 15/23/57 2/25/7
f 2/25/8 15/23/58 21/13/82 3/14/12
f 3/14/11 21/13/81 20/7/78 4/5/16
f 4/5/15 20/7/77 19/4/74 5/2/20
f 5/2/19 19/4/73 18/12/70 6/10/24
f 6/10/23 18/12/69 17/19/66 7/21/28
f 7/21/27 17/19/65 16/29/62 1/31/4
